<svg xmlns="http://www.w3.org/2000/svg" width="283.699" height="187.369" viewBox="0 0 283.699 187.369"><defs><style>.a{fill:#f3f3f3;}.a,.b,.c,.d,.l{fill-rule:evenodd;}.b,.d,.f{fill:#0ea88a;}.b{opacity:0.24;}.c,.e{fill:#00d9ae;}.g{fill:#d2d2d2;}.h{fill:none;stroke:#0ea88a;stroke-linecap:round;stroke-miterlimit:10;stroke-width:2.682px;}.i{fill:#fff;}.j{fill:#8e8e8e;}.k{fill:#00081a;}.m{fill:#dedede;}.n{opacity:0.14;}.o{fill:#fa8b98;}</style></defs><g transform="translate(-50 -117)"><path class="a" d="M93.305,226.733c-23.1-13.607-25.849-49.722-3.69-68.141,29.7-24.686,4.428-46.452,3.69-68.981-.7-21.35,10.081-46.915,59.236-43.751s85.741,40.549,148.968,13.333c43.466-18.708,67.843,29.68,51.467,71.359s-28.336,45.435-22.1,72.837-27.346,27.335-36.123,27.7S93.305,226.733,93.305,226.733Z" transform="translate(-24.403 71.407)"/><g transform="translate(66.289 124.212)"><path class="b" d="M173.708,84.5a8.822,8.822,0,0,0-2.137-.082c0-.008,0-.016,0-.026a2.128,2.128,0,0,0-2.128-2.128c-.025,0-.047.007-.072.008a4.565,4.565,0,0,0-3.979-5.344,8.575,8.575,0,0,0-15.24-7.078,6.059,6.059,0,0,0-4.785-.261c.018-.239.037-.478.037-.722a10.137,10.137,0,0,0-20.275,0c0,.288.02.573.043.855a2.089,2.089,0,0,0-2.533,1.24,6.123,6.123,0,0,0-7.366,7.844,2.072,2.072,0,0,0-2.285,1.208,4.361,4.361,0,0,0-7.411,3.119v.005a2.092,2.092,0,0,0-2.854.819c-.217-.067-4.923-1.484-8.788.621a7.621,7.621,0,0,0-3.72,4.478h87.334A4.269,4.269,0,0,0,173.708,84.5Zm-47.48-11.065-.043.026c-.036-.053-.077-.1-.114-.152.023-.021.045-.04.067-.063C126.167,73.306,126.2,73.37,126.228,73.433Z" transform="translate(-90.219 -52.411)"/><path class="c" d="M200.691,77.36a3.96,3.96,0,1,1-3.96-3.96A3.959,3.959,0,0,1,200.691,77.36Z" transform="translate(-87.151 -51.973)"/><path class="c" d="M333.335,90.034a3.959,3.959,0,1,1-3.959-3.959A3.959,3.959,0,0,1,333.335,90.034Z" transform="translate(-83.182 -51.593)"/><path class="d" d="M251.751,56.554a3.959,3.959,0,1,1-3.959-3.959A3.959,3.959,0,0,1,251.751,56.554Z" transform="translate(-85.623 -52.595)"/><path class="d" d="M313.539,160.53a3.96,3.96,0,1,1-3.959-3.959A3.959,3.959,0,0,1,313.539,160.53Z" transform="translate(-83.775 -49.484)"/><path class="d" d="M120.54,110.368a3.96,3.96,0,1,1-3.959-3.96A3.959,3.959,0,0,1,120.54,110.368Z" transform="translate(-89.549 -50.985)"/><path class="d" d="M158.519,144.99a2.273,2.273,0,1,1-2.273-2.273A2.273,2.273,0,0,1,158.519,144.99Z" transform="translate(-88.312 -49.899)"/><path class="d" d="M246.172,92.435a2.273,2.273,0,1,1-2.273-2.273A2.274,2.274,0,0,1,246.172,92.435Z" transform="translate(-85.689 -51.471)"/><path class="c" d="M251.04,126.686a2.273,2.273,0,1,1-2.273-2.273A2.273,2.273,0,0,1,251.04,126.686Z" transform="translate(-85.544 -50.446)"/><path class="c" d="M163.281,108.148a2.273,2.273,0,1,1-2.273-2.273A2.273,2.273,0,0,1,163.281,108.148Z" transform="translate(-88.169 -51.001)"/><path class="c" d="M322.544,125.461a2.273,2.273,0,1,1-2.273-2.273A2.273,2.273,0,0,1,322.544,125.461Z" transform="translate(-83.404 -50.483)"/></g><g transform="translate(62.114 225.504)"><path class="d" d="M115.1,221.818s-8.7-11.355-2.564-11.508c0,0-13.436-25.545-2.192-23.514,0,0-9.2-26.624,3.519-22.635,0,0,1.819-15.029,7.189-13.034s1.726,15.22,1.726,15.22,9.912,2.128-3.03,20.448c0,0,11.662-2.572-1.841,22.747,0,0,5.879-.307.868,12.276Z" transform="translate(-85.576 -150.945)"/><g transform="translate(28.531 8.058)"><path class="e" d="M117.338,223.171a.46.46,0,0,1-.443-.336c-7.53-26.877,1.349-63.352,1.44-63.717a.46.46,0,0,1,.894.221c-.09.364-8.911,36.606-1.447,63.247a.46.46,0,0,1-.319.566A.434.434,0,0,1,117.338,223.171Z" transform="translate(-113.868 -158.769)"/></g><path class="c" d="M108.247,220.455c-7.778-2.537-5.428-6.848-4.047-7.155s-19.488-13.273-8.594-16.38c0,0-13.1-10.85-8.439-16.227,4.987-5.753,15.191,6.445,16.726,12.775,0,0,8.916-6.907,6.9,14.961,0,0,7.8-3.932,2.564,12.544Z" transform="translate(-86.166 -150.1)"/><path class="c" d="M121.147,221.26s11.606-13.433,4.027-12.257c0,0,17.838-18.128,6.906-18.357,0,0,15.076-15.419,5.984-20.368-9.024-4.913-11.853,18.183-11.853,18.183s-10.889-7.48-6.675,18.644c0,0-7.6-2.993-1.035,13.924Z" transform="translate(-85.278 -150.387)"/><g transform="translate(6.335 35.39)"><path class="f" d="M111.942,224.238a.461.461,0,0,1-.447-.351,120.755,120.755,0,0,0-4.735-14.282c-2.884-7.2-7.707-17.126-14.3-23.507a.46.46,0,1,1,.64-.661c6.717,6.5,11.605,16.549,14.524,23.838a121.681,121.681,0,0,1,4.769,14.392.461.461,0,0,1-.337.557A.454.454,0,0,1,111.942,224.238Z" transform="translate(-92.317 -185.307)"/></g><g transform="translate(34.164 25.825)"><path class="f" d="M119.824,222.655a.46.46,0,0,1-.459-.435c-.321-5.776,2.137-15.268,7.306-28.214,3.84-9.614,7.824-17.651,7.864-17.73a.46.46,0,1,1,.824.41c-.159.318-15.826,32-15.075,45.482a.461.461,0,0,1-.435.485Z" transform="translate(-119.337 -176.02)"/></g></g><ellipse class="g" cx="137.286" cy="5.523" rx="137.286" ry="5.523" transform="translate(54.563 293.322)"/><ellipse class="e" cx="23.989" cy="54.644" rx="23.989" ry="54.644" transform="translate(240.157 124.212)"/><g transform="translate(251.026 171.393)"><g transform="translate(12.199 0)"><path class="f" d="M282.356,222.618a.921.921,0,0,1-.921-.921V99.327a.921.921,0,0,1,1.841,0V221.7A.922.922,0,0,1,282.356,222.618Z" transform="translate(-281.435 -98.406)"/></g><g transform="translate(12.199 22.304)"><path class="f" d="M282.356,136.38a.921.921,0,0,1-.651-1.572l14.475-14.477a.921.921,0,0,1,1.3,1.3L283.007,136.11A.918.918,0,0,1,282.356,136.38Z" transform="translate(-281.434 -120.062)"/></g><g transform="translate(12.199 11.26)"><path class="f" d="M282.356,118.526a.921.921,0,0,1-.651-1.572l7.344-7.345a.921.921,0,0,1,1.3,1.3l-7.344,7.344A.918.918,0,0,1,282.356,118.526Z" transform="translate(-281.434 -109.339)"/></g><g transform="translate(0 17.866)"><path class="f" d="M282.71,129.794a.919.919,0,0,1-.651-.27l-12.2-12.2a.921.921,0,0,1,1.3-1.3l12.2,12.2a.921.921,0,0,1-.651,1.572Z" transform="translate(-269.59 -115.753)"/></g></g><path class="f" d="M279.6,219.911s-.814-5.427-7.917-9.64c0,0,8.448,2.608,11.754,8.082,0,0,2.94-18.706,5.138-24.384l-.726,24.493s6.954-10.205,14.282-13.87c0,0-8.335,9.067-8.427,15.319Z" transform="translate(-18.501 75.846)"/><line class="h" y1="139.424" transform="translate(114.678 155.975)"/><g transform="translate(105.241 140.483)"><path class="i" d="M128.04,72.975l4.456,19.4h4.981v-19.4Z" transform="translate(-128.04 -68.257)"/><g transform="translate(0 0)"><g transform="translate(9.437 4.718)"><path class="i" d="M146.64,72.975l-4.456,19.4H137.2v-19.4Z" transform="translate(-137.203 -72.975)"/></g><g transform="translate(0 4.718)"><path class="e" d="M145.6,74.023l-3.974,17.3h-8.291l-3.974-17.3H145.6m1.316-1.048h0Zm0,0H128.04l4.456,19.4h9.961l4.455-19.4Z" transform="translate(-128.04 -72.975)"/></g><g transform="translate(0)"><path class="f" d="M137.477,68.394l-9.437,4.718h18.874Z" transform="translate(-128.04 -68.394)"/></g><g transform="translate(8.921 4.792)"><rect class="e" width="1.032" height="19.054"/></g></g></g><g transform="translate(161.043 197.363)"><path class="j" d="M182.669,134.03l-.448-.1,2.165-9.3a1.3,1.3,0,0,1,1.273-1.01h3v.46h-3a.844.844,0,0,0-.825.654Z" transform="translate(-182.221 -123.621)"/></g><g transform="translate(161.455 194.658)"><path class="i" d="M183.051,134.138l-.43-.162,4.548-12.077a1.4,1.4,0,0,1,1.308-.9h3.393v.46h-3.393a.939.939,0,0,0-.876.607Z" transform="translate(-182.621 -120.995)"/></g><path class="j" d="M189.584,121.438c-.614,0-1.111,1.109-1.111,2.478s.5,2.478,1.111,2.478Z" transform="translate(-20.991 73.676)"/><path class="i" d="M195.111,121.463c0,2.161-.786,3.913-1.755,3.913s-1.755-1.752-1.755-3.913.786-3.913,1.755-3.913S195.111,119.3,195.111,121.463Z" transform="translate(-20.897 73.56)"/><path class="j" d="M164.109,185.97a16.36,16.36,0,1,0,16.359,16.36A16.36,16.36,0,0,0,164.109,185.97Zm0,26.41a10.05,10.05,0,1,1,10.05-10.05A10.05,10.05,0,0,1,164.109,212.38Z" transform="translate(-22.209 75.607)"/><circle class="i" cx="3.003" cy="3.003" r="3.003" transform="translate(138.897 274.934)"/><path class="i" d="M252.59,201.942a3,3,0,1,1-3-3A3,3,0,0,1,252.59,201.942Z" transform="translate(-19.252 75.995)"/><path class="j" d="M249.975,185.97a16.36,16.36,0,1,0,16.36,16.36A16.359,16.359,0,0,0,249.975,185.97Zm0,26.41a10.05,10.05,0,1,1,10.05-10.05A10.05,10.05,0,0,1,249.975,212.38Z" transform="translate(-19.64 75.607)"/><path class="i" d="M174.933,139.018a4.335,4.335,0,0,0,4.335,4.335v-8.67A4.336,4.336,0,0,0,174.933,139.018Z" transform="translate(-21.396 74.073)"/><path class="e" d="M193.026,139.385s-.048-1.417-1.89-1.513-3.683-1.246-3.97-2.454a4.749,4.749,0,0,1-.121-.83,1.459,1.459,0,0,0-1.469-1.357H181.1a1.474,1.474,0,0,0-1.474,1.475v8.675a1.474,1.474,0,0,0,1.474,1.474h3.417s2.015,1.381-.4,4.719-13.177,17.492-16.054,22.441a26.476,26.476,0,0,0-3.223,10.358l2.3,9.551,14.731,8.287,4.489,4.2a3.188,3.188,0,0,0,2.18.861h48.916v-7.48h38.438s-2.416-14.961-18.528-24.513H221.345s6.138,6.675,4.853,16-10.722,12.2-14.635,12.2H193.15c-4.949,0-11.048-9.782-11.624-19.909a39.065,39.065,0,0,1,7.135-24.762c2.673-3.706,4.718-7.346,4.949-10.224A34.406,34.406,0,0,0,193.026,139.385Z" transform="translate(-21.698 74.029)"/><path class="k" d="M275.31,192.341h-9.581a1.841,1.841,0,0,0-1.84,1.841h0a1.841,1.841,0,0,0,1.84,1.842h9.581a1.841,1.841,0,0,0,1.841-1.842h0A1.841,1.841,0,0,0,275.31,192.341Z" transform="translate(-18.734 75.798)"/><path class="f" d="M164.223,180.273a20.294,20.294,0,0,0-20.294,20.294h40.586A20.293,20.293,0,0,0,164.223,180.273Z" transform="translate(-22.323 75.437)"/><path class="f" d="M271.94,201.067H230.855s-5.4-7.226-1.84-15.421c4.718-10.875,18.67-8.978,26.611-4.374S269.408,194.278,271.94,201.067Z" transform="translate(-19.814 75.357)"/><path class="f" d="M219.132,173.345l-1,1.415a1.062,1.062,0,0,1-.866.449h0a1.062,1.062,0,0,1-1.062-1.062v-7.892a.425.425,0,0,1,.425-.425h22.438a14.867,14.867,0,0,0,8.794-2.588,1.081,1.081,0,0,1,1.622.3c.932,1.632,1.994,4.833-.7,8.663a.437.437,0,0,1-.353.182H220.98A2.264,2.264,0,0,0,219.132,173.345Z" transform="translate(-20.161 74.92)"/><g transform="translate(215.529 262.733)"><path d="M261.939,194.576H235.815a.691.691,0,0,0-.691.691h0a.69.69,0,0,0,.691.69h26.124a.69.69,0,0,0,.69-.69h0A.69.69,0,0,0,261.939,194.576Z" transform="translate(-235.124 -186.868)"/><path d="M254.726,190.834H235.815a.69.69,0,0,0-.691.69h0a.691.691,0,0,0,.691.691h18.911a.69.69,0,0,0,.69-.691h0A.69.69,0,0,0,254.726,190.834Z" transform="translate(-235.124 -186.98)"/><path d="M248.186,187.092H235.815a.69.69,0,0,0-.691.69h0a.691.691,0,0,0,.691.691h12.371a.691.691,0,0,0,.69-.691h0A.69.69,0,0,0,248.186,187.092Z" transform="translate(-235.124 -187.092)"/></g><g transform="translate(231.564 218.685)"><rect class="e" width="26.853" height="16.842" transform="translate(0 10.901)"/><rect class="f" width="18.413" height="10.671" transform="translate(4.22 0.23)"/><g transform="translate(8.132 0)"><path d="M258.821,172.719a.181.181,0,0,1-.034,0,.229.229,0,0,1-.195-.261l4.143-27.934a.233.233,0,0,1,.262-.195.23.23,0,0,1,.194.262l-4.143,27.934A.23.23,0,0,1,258.821,172.719Z" transform="translate(-258.59 -144.324)"/><g transform="translate(6.569)"><path d="M269.34,172.719a.229.229,0,0,1-.227-.2l-4.143-27.934a.23.23,0,0,1,.194-.262.233.233,0,0,1,.262.195l4.142,27.934a.229.229,0,0,1-.194.261A.19.19,0,0,1,269.34,172.719Z" transform="translate(-264.968 -144.324)"/></g></g></g><path class="l" d="M180.685,164.206a29.732,29.732,0,0,0-4.156,10.148l-2.933.172a44.811,44.811,0,0,1,4.436-9.093Z" transform="translate(-21.436 74.956)"/><g transform="translate(227.766 246.39)"><path d="M280.872,172.145H247.466a.46.46,0,1,1,0-.921h33.405a.46.46,0,0,1,0,.921Z" transform="translate(-247.006 -171.224)"/></g><path class="m" d="M192.948,146.716c-.022.269-.163.644-.209.923-.668.089-1.018.126-1.3.146-1.295.089-3.97-3.365-3.97-4.4,0-.807,2.847-3.408,4.778-4.6A30.3,30.3,0,0,1,192.948,146.716Z" transform="translate(-21.021 74.195)"/><path class="k" d="M197.028,144.967a1.817,1.817,0,0,0-.616-.572v-.009c-.22-.114-2.41-1.363-2.41-1.363v.008a1.918,1.918,0,0,0-.835-.194,1.956,1.956,0,0,0-1.953,1.962,1.86,1.86,0,0,0,.255.958,1.954,1.954,0,0,0,.572.633l.008.009a2.726,2.726,0,0,0,.273.158l.738.414,1.259.713a.029.029,0,0,0,.018.008l.229.132a1.958,1.958,0,0,0,2.788-1.494c.008-.089.018-.176.018-.265A1.9,1.9,0,0,0,197.028,144.967Z" transform="translate(-20.909 74.317)"/><g transform="translate(166.963 170.714)"><g transform="translate(0.615 60.119)"><g transform="translate(0 36.903)"><path class="f" d="M203.689,191.95H199.46a6.294,6.294,0,0,1-3.606,2.34,40.048,40.048,0,0,1-4.991.087,2.238,2.238,0,0,0-2.3,2.239h0a2.239,2.239,0,0,0,2.239,2.24h12.884a1,1,0,0,0,1-1Z" transform="translate(-188.566 -191.95)"/><path class="f" d="M204.024,192.676H199.8a6.3,6.3,0,0,1-3.606,2.341,40.444,40.444,0,0,1-4.99.087,2.237,2.237,0,0,0-2.3,2.238h0a2.239,2.239,0,0,0,2.239,2.24h12.884a1,1,0,0,0,1-1Z" transform="translate(-188.556 -191.928)"/><path class="f" d="M199.865,192.341a1.892,1.892,0,0,0,3.723,0Z" transform="translate(-188.228 -191.938)"/></g><path class="n" d="M235.966,156.119H202.933c-8.464,0-8.464,8.818-8.464,12.536s3.006,24.6,3.006,24.6h6.406l1.977-24.6h24.361C235.282,168.655,238.419,162.961,235.966,156.119Z" transform="translate(-188.389 -156.119)"/><path d="M236.534,157.366H203.926c-8.209,0-8.209,8.554-8.209,12.161s2.916,23.86,2.916,23.86h6.215l1.918-23.86H230.4C235.306,169.527,238.912,164,236.534,157.366Z" transform="translate(-188.352 -156.082)"/></g><g transform="translate(14.559 0)"><path d="M225.624,114.9a18.905,18.905,0,0,0,3.545-6.253s-6.454-9.006-17.3-4.132Z" transform="translate(-201.813 -97.587)"/><path class="i" d="M211.845,104.476s-.763,5.675,1.318,10.086,2.6,4.51,6.346,3.77l.633,4.851,7.114-2.518s-2.719-7.594-1.645-8.956c.907-1.149,1.228-3.165-.093-3.863-2.09-1.105-3.613,1.332-3.7,2.346l-1.026-3.818S213.439,103.877,211.845,104.476Z" transform="translate(-201.818 -97.548)"/><g transform="translate(0 4.373)"><path d="M214.293,105.125a.424.424,0,0,1-.08-.007l-11.792-2.348a.392.392,0,0,1,.152-.769l11.792,2.347a.393.393,0,0,1-.072.778Z" transform="translate(-202.105 -101.993)"/></g><path class="e" d="M211.883,104.869l17.361,3.905s1.816-8.341-5.8-10.5S212.089,100.994,211.883,104.869Z" transform="translate(-201.813 -97.746)"/></g><path class="m" d="M228.163,137.517s-.194.528-.519,1.329c-.1.246-.211.527-.335.826-.053.106-.1.22-.14.325s-.1.22-.141.325c-.923,2.111-2.251,4.714-3.315,5.251-.6.3-3.544.335-7.221.255-7.519-.176-18.09-.871-18.09-.871s-.519.079-1.284.2a1.817,1.817,0,0,0-.616-.572v-.009c-.22-.114-2.41-1.363-2.41-1.363v.008a1.918,1.918,0,0,0-.835-.194,1.956,1.956,0,0,0-1.953,1.962,1.86,1.86,0,0,0,.255.958.144.144,0,0,1-.062.009c-.915.053-2.594-1.847-3.255-3.1a18.1,18.1,0,0,1,4.082-3.562,1.564,1.564,0,0,0-.546-1.056,4.783,4.783,0,0,1,1.707-.88c1.152-.078,6.138,3.307,6.138,3.307l16.464-.888,3.642-.194.114-.36.114-.325.105-.335.738-2.2Z" transform="translate(-187.961 -96.591)"/><g transform="translate(29.392 22.354)"><path class="e" d="M217.013,157.58s-1.471-22.269.6-30.037c2.023-7.567,8.628-10.588,12.31-5.754s2.224,12.629,2.533,18.989c.575,11.854,3.337,15.536,3.452,17.723h-18.9Z" transform="translate(-216.507 -119.451)"/><path class="c" d="M230.97,129.226l-2.686,11.928-10.745-1.633,2.92-11.829Z" transform="translate(-216.476 -119.204)"/></g><path class="i" d="M228.171,138.884s-.114.316-.317.826c-.035.106-.088.211-.132.335-.035.105-.088.211-.132.325-.87,2.145-2.559,5.919-3.869,6.569-.6.3-3.466.344-7.089.265h-.008c-7.52-.176-18.214-.871-18.214-.871s-.379.062-.959.15c.008-.089.018-.176.018-.265a1.9,1.9,0,0,0-.343-1.1,1.817,1.817,0,0,0-.616-.572v-.009c-.22-.114-2.41-1.363-2.41-1.363v.008a1.918,1.918,0,0,0-.835-.194,1.956,1.956,0,0,0-1.953,1.962,1.86,1.86,0,0,0,.255.958,1.954,1.954,0,0,0,.572.633l.008.009a2.726,2.726,0,0,0,.273.158l.738.414c-.114.018-.229.026-.334.044-.589.078-1.073.14-1.319.158-1.152.079-3.536-2.99-3.536-3.914a1.292,1.292,0,0,1,.281-.6,18.1,18.1,0,0,1,4.082-3.562,3.109,3.109,0,0,1,1.161-.519c1.152-.079,6.138,3.3,6.138,3.3l16.526-.88h.009l3.571-.194.562-1.707.114-.325.106-.334.289-.862,6.843,1.073Z" transform="translate(-187.969 -96.55)"/><path class="e" d="M220.438,127.308l-2.187,11.738L227.8,140.5l3.146-11.662Z" transform="translate(-187.063 -96.862)"/><path class="o" d="M217.595,124.461v.009l-.009,0Z" transform="translate(-187.083 -96.947)"/></g></g></svg>